<svg xmlns="http://www.w3.org/2000/svg" width="720" height="720" viewBox="0 0 720 720">
<rect width="100%" height="100%" fill="#f8faf8"/>
<text x="360.0" y="30" text-anchor="middle" font-family="Arial" font-size="22" fill="#172026">Adaptive Feedback Graph, Scenario 3 (dynamic)</text>
<rect x="40" y="40" width="640" height="640" fill="#ffffff" stroke="#172026"/>
<g><circle cx="304.3" cy="290.1" r="2.4" fill="#6f7782" opacity="0.42"/><circle cx="303.2" cy="291.4" r="2.4" fill="#6f7782" opacity="0.42"/><circle cx="303.3" cy="296.5" r="2.4" fill="#6f7782" opacity="0.42"/><circle cx="308.6" cy="295.1" r="2.4" fill="#6f7782" opacity="0.42"/><circle cx="297.2" cy="294.9" r="2.4" fill="#6f7782" opacity="0.42"/><circle cx="302.5" cy="291.4" r="2.4" fill="#6f7782" opacity="0.42"/><circle cx="307.1" cy="286.0" r="2.4" fill="#6f7782" opacity="0.42"/><circle cx="298.2" cy="298.7" r="2.4" fill="#6f7782" opacity="0.42"/><circle cx="299.4" cy="291.0" r="2.4" fill="#6f7782" opacity="0.42"/><circle cx="302.5" cy="295.4" r="2.4" fill="#6f7782" opacity="0.42"/><circle cx="306.9" cy="288.0" r="2.4" fill="#6f7782" opacity="0.42"/><circle cx="301.5" cy="298.2" r="2.4" fill="#6f7782" opacity="0.42"/><circle cx="304.7" cy="295.5" r="2.4" fill="#6f7782" opacity="0.42"/><circle cx="308.9" cy="294.9" r="2.4" fill="#6f7782" opacity="0.42"/><circle cx="300.5" cy="292.5" r="2.4" fill="#6f7782" opacity="0.42"/><circle cx="306.2" cy="288.2" r="2.4" fill="#6f7782" opacity="0.42"/><circle cx="310.3" cy="296.8" r="2.4" fill="#6f7782" opacity="0.42"/><circle cx="304.2" cy="301.7" r="2.4" fill="#6f7782" opacity="0.42"/><circle cx="303.7" cy="296.5" r="2.4" fill="#6f7782" opacity="0.42"/><circle cx="302.0" cy="295.2" r="2.4" fill="#6f7782" opacity="0.42"/><circle cx="307.5" cy="289.1" r="2.4" fill="#6f7782" opacity="0.42"/><circle cx="308.5" cy="297.9" r="2.4" fill="#6f7782" opacity="0.42"/><circle cx="302.7" cy="296.4" r="2.4" fill="#6f7782" opacity="0.42"/><circle cx="301.9" cy="287.2" r="2.4" fill="#6f7782" opacity="0.42"/><circle cx="297.8" cy="288.9" r="2.4" fill="#6f7782" opacity="0.42"/><circle cx="303.4" cy="296.1" r="2.4" fill="#6f7782" opacity="0.42"/><circle cx="305.5" cy="301.2" r="2.4" fill="#6f7782" opacity="0.42"/><circle cx="303.7" cy="292.1" r="2.4" fill="#6f7782" opacity="0.42"/><circle cx="305.5" cy="291.4" r="2.4" fill="#6f7782" opacity="0.42"/><circle cx="307.5" cy="293.6" r="2.4" fill="#6f7782" opacity="0.42"/><circle cx="303.7" cy="297.3" r="2.4" fill="#6f7782" opacity="0.42"/><circle cx="303.5" cy="290.8" r="2.4" fill="#6f7782" opacity="0.42"/><circle cx="308.7" cy="293.2" r="2.4" fill="#6f7782" opacity="0.42"/><circle cx="300.6" cy="294.1" r="2.4" fill="#6f7782" opacity="0.42"/><circle cx="310.5" cy="295.2" r="2.4" fill="#6f7782" opacity="0.42"/><circle cx="307.0" cy="287.6" r="2.4" fill="#6f7782" opacity="0.42"/><circle cx="307.9" cy="295.8" r="2.4" fill="#6f7782" opacity="0.42"/><circle cx="302.4" cy="292.5" r="2.4" fill="#6f7782" opacity="0.42"/><circle cx="313.8" cy="291.5" r="2.4" fill="#6f7782" opacity="0.42"/><circle cx="300.5" cy="291.2" r="2.4" fill="#6f7782" opacity="0.42"/><circle cx="313.2" cy="299.4" r="2.4" fill="#6f7782" opacity="0.42"/><circle cx="303.0" cy="293.7" r="2.4" fill="#6f7782" opacity="0.42"/><circle cx="310.7" cy="286.9" r="2.4" fill="#6f7782" opacity="0.42"/><circle cx="306.9" cy="293.2" r="2.4" fill="#6f7782" opacity="0.42"/><circle cx="310.3" cy="293.4" r="2.4" fill="#6f7782" opacity="0.42"/><circle cx="310.9" cy="289.6" r="2.4" fill="#6f7782" opacity="0.42"/><circle cx="304.0" cy="292.8" r="2.4" fill="#6f7782" opacity="0.42"/><circle cx="309.0" cy="298.6" r="2.4" fill="#6f7782" opacity="0.42"/><circle cx="306.7" cy="299.3" r="2.4" fill="#6f7782" opacity="0.42"/><circle cx="300.3" cy="301.5" r="2.4" fill="#6f7782" opacity="0.42"/><circle cx="259.5" cy="440.3" r="2.4" fill="#6f7782" opacity="0.42"/><circle cx="261.9" cy="439.5" r="2.4" fill="#6f7782" opacity="0.42"/><circle cx="254.0" cy="440.8" r="2.4" fill="#6f7782" opacity="0.42"/><circle cx="247.2" cy="450.5" r="2.4" fill="#6f7782" opacity="0.42"/><circle cx="265.0" cy="444.4" r="2.4" fill="#6f7782" opacity="0.42"/><circle cx="257.4" cy="447.8" r="2.4" fill="#6f7782" opacity="0.42"/><circle cx="256.2" cy="447.2" r="2.4" fill="#6f7782" opacity="0.42"/><circle cx="255.4" cy="451.8" r="2.4" fill="#6f7782" opacity="0.42"/><circle cx="261.2" cy="445.5" r="2.4" fill="#6f7782" opacity="0.42"/><circle cx="256.5" cy="449.0" r="2.4" fill="#6f7782" opacity="0.42"/><circle cx="252.9" cy="448.9" r="2.4" fill="#6f7782" opacity="0.42"/><circle cx="256.9" cy="440.5" r="2.4" fill="#6f7782" opacity="0.42"/><circle cx="256.8" cy="444.4" r="2.4" fill="#6f7782" opacity="0.42"/><circle cx="262.3" cy="452.5" r="2.4" fill="#6f7782" opacity="0.42"/><circle cx="257.1" cy="450.6" r="2.4" fill="#6f7782" opacity="0.42"/><circle cx="255.5" cy="444.8" r="2.4" fill="#6f7782" opacity="0.42"/><circle cx="259.9" cy="455.0" r="2.4" fill="#6f7782" opacity="0.42"/><circle cx="259.1" cy="440.3" r="2.4" fill="#6f7782" opacity="0.42"/><circle cx="250.6" cy="444.2" r="2.4" fill="#6f7782" opacity="0.42"/><circle cx="258.5" cy="450.2" r="2.4" fill="#6f7782" opacity="0.42"/><circle cx="260.2" cy="453.4" r="2.4" fill="#6f7782" opacity="0.42"/><circle cx="256.5" cy="446.7" r="2.4" fill="#6f7782" opacity="0.42"/><circle cx="255.6" cy="451.1" r="2.4" fill="#6f7782" opacity="0.42"/><circle cx="252.0" cy="442.3" r="2.4" fill="#6f7782" opacity="0.42"/><circle cx="258.0" cy="455.3" r="2.4" fill="#6f7782" opacity="0.42"/><circle cx="252.3" cy="444.0" r="2.4" fill="#6f7782" opacity="0.42"/><circle cx="257.0" cy="451.0" r="2.4" fill="#6f7782" opacity="0.42"/><circle cx="253.9" cy="447.8" r="2.4" fill="#6f7782" opacity="0.42"/><circle cx="258.0" cy="453.0" r="2.4" fill="#6f7782" opacity="0.42"/><circle cx="255.8" cy="438.2" r="2.4" fill="#6f7782" opacity="0.42"/><circle cx="251.5" cy="443.0" r="2.4" fill="#6f7782" opacity="0.42"/><circle cx="258.9" cy="443.2" r="2.4" fill="#6f7782" opacity="0.42"/><circle cx="253.4" cy="445.3" r="2.4" fill="#6f7782" opacity="0.42"/><circle cx="249.7" cy="450.7" r="2.4" fill="#6f7782" opacity="0.42"/><circle cx="258.6" cy="443.3" r="2.4" fill="#6f7782" opacity="0.42"/><circle cx="260.6" cy="448.6" r="2.4" fill="#6f7782" opacity="0.42"/><circle cx="253.3" cy="440.8" r="2.4" fill="#6f7782" opacity="0.42"/><circle cx="262.0" cy="445.9" r="2.4" fill="#6f7782" opacity="0.42"/><circle cx="258.7" cy="449.5" r="2.4" fill="#6f7782" opacity="0.42"/><circle cx="259.5" cy="440.4" r="2.4" fill="#6f7782" opacity="0.42"/><circle cx="258.4" cy="444.4" r="2.4" fill="#6f7782" opacity="0.42"/><circle cx="254.6" cy="446.8" r="2.4" fill="#6f7782" opacity="0.42"/><circle cx="255.7" cy="447.8" r="2.4" fill="#6f7782" opacity="0.42"/><circle cx="254.6" cy="441.2" r="2.4" fill="#6f7782" opacity="0.42"/><circle cx="261.9" cy="455.2" r="2.4" fill="#6f7782" opacity="0.42"/><circle cx="259.2" cy="444.9" r="2.4" fill="#6f7782" opacity="0.42"/><circle cx="254.8" cy="448.4" r="2.4" fill="#6f7782" opacity="0.42"/><circle cx="258.4" cy="453.4" r="2.4" fill="#6f7782" opacity="0.42"/><circle cx="256.5" cy="451.1" r="2.4" fill="#6f7782" opacity="0.42"/><circle cx="256.4" cy="450.9" r="2.4" fill="#6f7782" opacity="0.42"/><circle cx="349.2" cy="171.9" r="2.4" fill="#6f7782" opacity="0.42"/><circle cx="354.7" cy="163.6" r="2.4" fill="#6f7782" opacity="0.42"/><circle cx="349.2" cy="156.5" r="2.4" fill="#6f7782" opacity="0.42"/><circle cx="351.7" cy="166.1" r="2.4" fill="#6f7782" opacity="0.42"/><circle cx="352.5" cy="169.6" r="2.4" fill="#6f7782" opacity="0.42"/><circle cx="361.4" cy="169.1" r="2.4" fill="#6f7782" opacity="0.42"/><circle cx="350.2" cy="161.4" r="2.4" fill="#6f7782" opacity="0.42"/><circle cx="345.9" cy="162.9" r="2.4" fill="#6f7782" opacity="0.42"/><circle cx="352.6" cy="169.4" r="2.4" fill="#6f7782" opacity="0.42"/><circle cx="348.3" cy="170.0" r="2.4" fill="#6f7782" opacity="0.42"/><circle cx="351.6" cy="161.8" r="2.4" fill="#6f7782" opacity="0.42"/><circle cx="359.2" cy="163.1" r="2.4" fill="#6f7782" opacity="0.42"/><circle cx="358.8" cy="167.6" r="2.4" fill="#6f7782" opacity="0.42"/><circle cx="343.2" cy="163.5" r="2.4" fill="#6f7782" opacity="0.42"/><circle cx="352.5" cy="168.7" r="2.4" fill="#6f7782" opacity="0.42"/><circle cx="355.9" cy="165.7" r="2.4" fill="#6f7782" opacity="0.42"/><circle cx="347.3" cy="171.2" r="2.4" fill="#6f7782" opacity="0.42"/><circle cx="351.8" cy="170.5" r="2.4" fill="#6f7782" opacity="0.42"/><circle cx="345.9" cy="163.5" r="2.4" fill="#6f7782" opacity="0.42"/><circle cx="353.9" cy="167.4" r="2.4" fill="#6f7782" opacity="0.42"/><circle cx="354.0" cy="164.5" r="2.4" fill="#6f7782" opacity="0.42"/><circle cx="353.1" cy="162.6" r="2.4" fill="#6f7782" opacity="0.42"/><circle cx="348.5" cy="161.9" r="2.4" fill="#6f7782" opacity="0.42"/><circle cx="352.7" cy="165.2" r="2.4" fill="#6f7782" opacity="0.42"/><circle cx="356.8" cy="169.5" r="2.4" fill="#6f7782" opacity="0.42"/><circle cx="353.8" cy="161.5" r="2.4" fill="#6f7782" opacity="0.42"/><circle cx="361.2" cy="169.5" r="2.4" fill="#6f7782" opacity="0.42"/><circle cx="349.1" cy="171.7" r="2.4" fill="#6f7782" opacity="0.42"/><circle cx="355.2" cy="174.3" r="2.4" fill="#6f7782" opacity="0.42"/><circle cx="353.8" cy="167.3" r="2.4" fill="#6f7782" opacity="0.42"/><circle cx="356.2" cy="167.8" r="2.4" fill="#6f7782" opacity="0.42"/><circle cx="353.8" cy="165.7" r="2.4" fill="#6f7782" opacity="0.42"/><circle cx="350.8" cy="165.6" r="2.4" fill="#6f7782" opacity="0.42"/><circle cx="347.8" cy="170.6" r="2.4" fill="#6f7782" opacity="0.42"/><circle cx="352.2" cy="170.3" r="2.4" fill="#6f7782" opacity="0.42"/><circle cx="352.3" cy="162.1" r="2.4" fill="#6f7782" opacity="0.42"/><circle cx="355.7" cy="166.7" r="2.4" fill="#6f7782" opacity="0.42"/><circle cx="352.1" cy="169.8" r="2.4" fill="#6f7782" opacity="0.42"/><circle cx="351.6" cy="165.4" r="2.4" fill="#6f7782" opacity="0.42"/><circle cx="345.5" cy="165.2" r="2.4" fill="#6f7782" opacity="0.42"/><circle cx="347.7" cy="161.5" r="2.4" fill="#6f7782" opacity="0.42"/><circle cx="348.3" cy="167.3" r="2.4" fill="#6f7782" opacity="0.42"/><circle cx="354.0" cy="166.7" r="2.4" fill="#6f7782" opacity="0.42"/><circle cx="348.9" cy="161.2" r="2.4" fill="#6f7782" opacity="0.42"/><circle cx="348.0" cy="170.2" r="2.4" fill="#6f7782" opacity="0.42"/><circle cx="352.9" cy="157.8" r="2.4" fill="#6f7782" opacity="0.42"/><circle cx="351.0" cy="165.1" r="2.4" fill="#6f7782" opacity="0.42"/><circle cx="346.3" cy="170.0" r="2.4" fill="#6f7782" opacity="0.42"/><circle cx="350.4" cy="172.7" r="2.4" fill="#6f7782" opacity="0.42"/><circle cx="354.6" cy="170.2" r="2.4" fill="#6f7782" opacity="0.42"/><circle cx="129.2" cy="237.8" r="2.4" fill="#6f7782" opacity="0.42"/><circle cx="120.3" cy="232.4" r="2.4" fill="#6f7782" opacity="0.42"/><circle cx="134.6" cy="237.5" r="2.4" fill="#6f7782" opacity="0.42"/><circle cx="132.0" cy="244.7" r="2.4" fill="#6f7782" opacity="0.42"/><circle cx="129.0" cy="242.5" r="2.4" fill="#6f7782" opacity="0.42"/><circle cx="127.7" cy="236.0" r="2.4" fill="#6f7782" opacity="0.42"/><circle cx="122.0" cy="233.0" r="2.4" fill="#6f7782" opacity="0.42"/><circle cx="128.3" cy="241.6" r="2.4" fill="#6f7782" opacity="0.42"/><circle cx="125.6" cy="241.6" r="2.4" fill="#6f7782" opacity="0.42"/><circle cx="133.9" cy="241.9" r="2.4" fill="#6f7782" opacity="0.42"/><circle cx="130.7" cy="233.7" r="2.4" fill="#6f7782" opacity="0.42"/><circle cx="130.2" cy="236.2" r="2.4" fill="#6f7782" opacity="0.42"/><circle cx="125.7" cy="236.5" r="2.4" fill="#6f7782" opacity="0.42"/><circle cx="129.2" cy="237.8" r="2.4" fill="#6f7782" opacity="0.42"/><circle cx="128.1" cy="235.9" r="2.4" fill="#6f7782" opacity="0.42"/><circle cx="131.3" cy="235.3" r="2.4" fill="#6f7782" opacity="0.42"/><circle cx="124.5" cy="242.0" r="2.4" fill="#6f7782" opacity="0.42"/><circle cx="124.2" cy="247.0" r="2.4" fill="#6f7782" opacity="0.42"/><circle cx="123.1" cy="239.5" r="2.4" fill="#6f7782" opacity="0.42"/><circle cx="128.8" cy="233.2" r="2.4" fill="#6f7782" opacity="0.42"/><circle cx="121.6" cy="231.5" r="2.4" fill="#6f7782" opacity="0.42"/><circle cx="119.0" cy="238.6" r="2.4" fill="#6f7782" opacity="0.42"/><circle cx="127.6" cy="232.7" r="2.4" fill="#6f7782" opacity="0.42"/><circle cx="127.3" cy="239.5" r="2.4" fill="#6f7782" opacity="0.42"/><circle cx="129.5" cy="233.2" r="2.4" fill="#6f7782" opacity="0.42"/><circle cx="119.5" cy="238.6" r="2.4" fill="#6f7782" opacity="0.42"/><circle cx="125.4" cy="235.8" r="2.4" fill="#6f7782" opacity="0.42"/><circle cx="134.9" cy="230.0" r="2.4" fill="#6f7782" opacity="0.42"/><circle cx="126.0" cy="245.8" r="2.4" fill="#6f7782" opacity="0.42"/><circle cx="127.9" cy="240.3" r="2.4" fill="#6f7782" opacity="0.42"/><circle cx="134.0" cy="231.7" r="2.4" fill="#6f7782" opacity="0.42"/><circle cx="132.4" cy="238.8" r="2.4" fill="#6f7782" opacity="0.42"/><circle cx="121.3" cy="238.3" r="2.4" fill="#6f7782" opacity="0.42"/><circle cx="128.0" cy="238.9" r="2.4" fill="#6f7782" opacity="0.42"/><circle cx="124.5" cy="235.3" r="2.4" fill="#6f7782" opacity="0.42"/><circle cx="132.3" cy="239.4" r="2.4" fill="#6f7782" opacity="0.42"/><circle cx="125.3" cy="235.5" r="2.4" fill="#6f7782" opacity="0.42"/><circle cx="127.8" cy="244.6" r="2.4" fill="#6f7782" opacity="0.42"/><circle cx="134.3" cy="237.2" r="2.4" fill="#6f7782" opacity="0.42"/><circle cx="122.0" cy="244.7" r="2.4" fill="#6f7782" opacity="0.42"/><circle cx="126.9" cy="230.0" r="2.4" fill="#6f7782" opacity="0.42"/><circle cx="129.3" cy="245.1" r="2.4" fill="#6f7782" opacity="0.42"/><circle cx="127.2" cy="235.7" r="2.4" fill="#6f7782" opacity="0.42"/><circle cx="121.4" cy="242.3" r="2.4" fill="#6f7782" opacity="0.42"/><circle cx="130.1" cy="233.3" r="2.4" fill="#6f7782" opacity="0.42"/><circle cx="126.4" cy="236.0" r="2.4" fill="#6f7782" opacity="0.42"/><circle cx="132.2" cy="233.3" r="2.4" fill="#6f7782" opacity="0.42"/><circle cx="131.2" cy="239.1" r="2.4" fill="#6f7782" opacity="0.42"/><circle cx="130.9" cy="235.0" r="2.4" fill="#6f7782" opacity="0.42"/><circle cx="128.7" cy="243.2" r="2.4" fill="#6f7782" opacity="0.42"/><circle cx="320.0" cy="563.6" r="2.4" fill="#6f7782" opacity="0.42"/><circle cx="333.1" cy="564.1" r="2.4" fill="#6f7782" opacity="0.42"/><circle cx="331.0" cy="558.2" r="2.4" fill="#6f7782" opacity="0.42"/><circle cx="320.4" cy="564.8" r="2.4" fill="#6f7782" opacity="0.42"/><circle cx="321.2" cy="563.0" r="2.4" fill="#6f7782" opacity="0.42"/><circle cx="326.9" cy="564.7" r="2.4" fill="#6f7782" opacity="0.42"/><circle cx="326.1" cy="562.1" r="2.4" fill="#6f7782" opacity="0.42"/><circle cx="325.7" cy="564.9" r="2.4" fill="#6f7782" opacity="0.42"/><circle cx="326.5" cy="564.3" r="2.4" fill="#6f7782" opacity="0.42"/><circle cx="323.8" cy="563.7" r="2.4" fill="#6f7782" opacity="0.42"/><circle cx="320.5" cy="563.3" r="2.4" fill="#6f7782" opacity="0.42"/><circle cx="322.4" cy="562.6" r="2.4" fill="#6f7782" opacity="0.42"/><circle cx="327.9" cy="561.0" r="2.4" fill="#6f7782" opacity="0.42"/><circle cx="327.7" cy="562.0" r="2.4" fill="#6f7782" opacity="0.42"/><circle cx="327.4" cy="564.5" r="2.4" fill="#6f7782" opacity="0.42"/><circle cx="337.3" cy="557.1" r="2.4" fill="#6f7782" opacity="0.42"/><circle cx="316.0" cy="564.3" r="2.4" fill="#6f7782" opacity="0.42"/><circle cx="323.0" cy="562.9" r="2.4" fill="#6f7782" opacity="0.42"/><circle cx="320.6" cy="562.4" r="2.4" fill="#6f7782" opacity="0.42"/><circle cx="327.5" cy="562.5" r="2.4" fill="#6f7782" opacity="0.42"/><circle cx="323.4" cy="562.3" r="2.4" fill="#6f7782" opacity="0.42"/><circle cx="329.4" cy="564.8" r="2.4" fill="#6f7782" opacity="0.42"/><circle cx="324.9" cy="564.0" r="2.4" fill="#6f7782" opacity="0.42"/><circle cx="321.0" cy="563.8" r="2.4" fill="#6f7782" opacity="0.42"/><circle cx="330.6" cy="561.6" r="2.4" fill="#6f7782" opacity="0.42"/><circle cx="318.5" cy="564.7" r="2.4" fill="#6f7782" opacity="0.42"/><circle cx="335.3" cy="561.8" r="2.4" fill="#6f7782" opacity="0.42"/><circle cx="326.3" cy="562.1" r="2.4" fill="#6f7782" opacity="0.42"/><circle cx="321.5" cy="564.1" r="2.4" fill="#6f7782" opacity="0.42"/><circle cx="324.1" cy="563.1" r="2.4" fill="#6f7782" opacity="0.42"/><circle cx="336.3" cy="565.7" r="2.4" fill="#6f7782" opacity="0.42"/><circle cx="328.7" cy="564.1" r="2.4" fill="#6f7782" opacity="0.42"/><circle cx="270.4" cy="461.3" r="2.4" fill="#6f7782" opacity="0.42"/><circle cx="368.4" cy="172.8" r="2.4" fill="#6f7782" opacity="0.42"/><circle cx="367.0" cy="157.6" r="2.4" fill="#6f7782" opacity="0.42"/><circle cx="359.5" cy="154.8" r="2.4" fill="#6f7782" opacity="0.42"/><circle cx="341.8" cy="179.8" r="2.4" fill="#6f7782" opacity="0.42"/><circle cx="241.5" cy="447.6" r="2.4" fill="#6f7782" opacity="0.42"/><circle cx="309.8" cy="557.4" r="2.4" fill="#6f7782" opacity="0.42"/><circle cx="344.4" cy="562.3" r="2.4" fill="#6f7782" opacity="0.42"/><circle cx="273.7" cy="451.5" r="2.4" fill="#6f7782" opacity="0.42"/><circle cx="324.2" cy="291.3" r="2.4" fill="#6f7782" opacity="0.42"/><circle cx="294.5" cy="280.2" r="2.4" fill="#6f7782" opacity="0.42"/><circle cx="356.1" cy="183.9" r="2.4" fill="#6f7782" opacity="0.42"/><circle cx="267.9" cy="442.9" r="2.4" fill="#6f7782" opacity="0.42"/><circle cx="268.5" cy="457.5" r="2.4" fill="#6f7782" opacity="0.42"/><circle cx="252.0" cy="466.4" r="2.4" fill="#6f7782" opacity="0.42"/><circle cx="266.6" cy="435.7" r="2.4" fill="#6f7782" opacity="0.42"/><circle cx="336.9" cy="172.3" r="2.4" fill="#6f7782" opacity="0.42"/><circle cx="346.6" cy="183.8" r="2.4" fill="#6f7782" opacity="0.42"/></g>
<g><circle cx="613.4" cy="479.3" r="7" fill="#d14d3f" opacity="0.72"/><circle cx="278.0" cy="115.8" r="7" fill="#d14d3f" opacity="0.72"/><circle cx="266.3" cy="198.8" r="7" fill="#d14d3f" opacity="0.72"/><circle cx="611.1" cy="463.7" r="7" fill="#d14d3f" opacity="0.72"/><circle cx="543.3" cy="231.2" r="7" fill="#d14d3f" opacity="0.72"/><circle cx="485.1" cy="139.1" r="7" fill="#d14d3f" opacity="0.72"/><circle cx="142.5" cy="352.1" r="7" fill="#d14d3f" opacity="0.72"/><circle cx="398.4" cy="305.2" r="7" fill="#d14d3f" opacity="0.72"/><circle cx="415.8" cy="561.5" r="7" fill="#d14d3f" opacity="0.72"/><circle cx="191.3" cy="483.0" r="7" fill="#d14d3f" opacity="0.72"/><circle cx="406.2" cy="436.6" r="7" fill="#d14d3f" opacity="0.72"/><circle cx="237.9" cy="247.0" r="7" fill="#d14d3f" opacity="0.72"/><circle cx="457.6" cy="242.1" r="7" fill="#d14d3f" opacity="0.72"/><circle cx="405.3" cy="572.2" r="7" fill="#d14d3f" opacity="0.72"/><circle cx="509.5" cy="494.0" r="7" fill="#d14d3f" opacity="0.72"/><circle cx="489.8" cy="472.3" r="7" fill="#d14d3f" opacity="0.72"/><circle cx="565.0" cy="594.5" r="7" fill="#d14d3f" opacity="0.72"/><circle cx="515.1" cy="181.0" r="7" fill="#d14d3f" opacity="0.72"/><circle cx="530.1" cy="246.1" r="7" fill="#d14d3f" opacity="0.72"/><circle cx="446.6" cy="174.9" r="7" fill="#d14d3f" opacity="0.72"/><circle cx="385.4" cy="398.1" r="7" fill="#d14d3f" opacity="0.72"/><circle cx="417.6" cy="539.5" r="7" fill="#d14d3f" opacity="0.72"/><circle cx="398.7" cy="592.0" r="7" fill="#d14d3f" opacity="0.72"/><circle cx="321.1" cy="401.6" r="7" fill="#d14d3f" opacity="0.72"/><circle cx="578.9" cy="604.6" r="7" fill="#d14d3f" opacity="0.72"/><circle cx="403.1" cy="484.3" r="7" fill="#d14d3f" opacity="0.72"/><circle cx="428.4" cy="361.5" r="7" fill="#d14d3f" opacity="0.72"/><circle cx="586.0" cy="465.1" r="7" fill="#d14d3f" opacity="0.72"/><circle cx="485.2" cy="156.0" r="7" fill="#d14d3f" opacity="0.72"/><circle cx="393.8" cy="523.6" r="7" fill="#d14d3f" opacity="0.72"/><circle cx="568.3" cy="622.4" r="7" fill="#d14d3f" opacity="0.72"/><circle cx="443.7" cy="385.9" r="7" fill="#d14d3f" opacity="0.72"/><circle cx="439.8" cy="171.9" r="7" fill="#d14d3f" opacity="0.72"/><circle cx="506.2" cy="292.8" r="7" fill="#d14d3f" opacity="0.72"/><circle cx="229.3" cy="238.7" r="7" fill="#d14d3f" opacity="0.72"/><circle cx="448.5" cy="123.1" r="7" fill="#d14d3f" opacity="0.72"/><circle cx="224.8" cy="526.2" r="7" fill="#d14d3f" opacity="0.72"/><circle cx="477.8" cy="326.6" r="7" fill="#d14d3f" opacity="0.72"/><circle cx="597.0" cy="416.0" r="7" fill="#d14d3f" opacity="0.72"/><circle cx="581.3" cy="508.6" r="7" fill="#d14d3f" opacity="0.72"/><circle cx="538.6" cy="530.1" r="7" fill="#d14d3f" opacity="0.72"/><circle cx="215.3" cy="528.7" r="7" fill="#d14d3f" opacity="0.72"/><circle cx="534.3" cy="338.8" r="7" fill="#d14d3f" opacity="0.72"/><circle cx="540.3" cy="344.6" r="7" fill="#d14d3f" opacity="0.72"/><circle cx="508.9" cy="495.9" r="7" fill="#d14d3f" opacity="0.72"/><circle cx="295.2" cy="110.5" r="7" fill="#d14d3f" opacity="0.72"/><circle cx="140.8" cy="451.3" r="7" fill="#d14d3f" opacity="0.72"/><circle cx="385.7" cy="398.7" r="7" fill="#d14d3f" opacity="0.72"/><circle cx="240.5" cy="168.2" r="7" fill="#d14d3f" opacity="0.72"/><circle cx="599.1" cy="258.3" r="7" fill="#d14d3f" opacity="0.72"/><circle cx="458.9" cy="491.1" r="7" fill="#d14d3f" opacity="0.72"/><circle cx="408.4" cy="98.7" r="7" fill="#d14d3f" opacity="0.72"/><circle cx="466.7" cy="242.5" r="7" fill="#d14d3f" opacity="0.72"/><circle cx="232.9" cy="523.9" r="7" fill="#d14d3f" opacity="0.72"/><circle cx="438.8" cy="391.3" r="7" fill="#d14d3f" opacity="0.72"/><circle cx="375.3" cy="327.4" r="7" fill="#d14d3f" opacity="0.72"/><circle cx="609.9" cy="559.8" r="7" fill="#d14d3f" opacity="0.72"/><circle cx="473.6" cy="564.6" r="7" fill="#d14d3f" opacity="0.72"/><circle cx="119.7" cy="340.0" r="7" fill="#d14d3f" opacity="0.72"/><circle cx="428.3" cy="501.3" r="7" fill="#d14d3f" opacity="0.72"/><circle cx="177.3" cy="454.9" r="7" fill="#d14d3f" opacity="0.72"/><circle cx="430.6" cy="396.6" r="7" fill="#d14d3f" opacity="0.72"/><circle cx="449.4" cy="467.4" r="7" fill="#d14d3f" opacity="0.72"/><circle cx="410.3" cy="367.1" r="7" fill="#d14d3f" opacity="0.72"/><circle cx="549.0" cy="424.3" r="7" fill="#d14d3f" opacity="0.72"/><circle cx="591.2" cy="411.5" r="7" fill="#d14d3f" opacity="0.72"/><circle cx="472.4" cy="292.2" r="7" fill="#d14d3f" opacity="0.72"/><circle cx="458.2" cy="103.5" r="7" fill="#d14d3f" opacity="0.72"/><circle cx="521.3" cy="430.8" r="7" fill="#d14d3f" opacity="0.72"/><circle cx="360.4" cy="438.1" r="7" fill="#d14d3f" opacity="0.72"/><circle cx="459.2" cy="266.2" r="7" fill="#d14d3f" opacity="0.72"/><circle cx="510.7" cy="250.2" r="7" fill="#d14d3f" opacity="0.72"/><circle cx="211.7" cy="257.7" r="7" fill="#d14d3f" opacity="0.72"/><circle cx="478.9" cy="221.9" r="7" fill="#d14d3f" opacity="0.72"/><circle cx="429.6" cy="326.3" r="7" fill="#d14d3f" opacity="0.72"/><circle cx="529.8" cy="315.9" r="7" fill="#d14d3f" opacity="0.72"/><circle cx="440.9" cy="355.3" r="7" fill="#d14d3f" opacity="0.72"/><circle cx="552.4" cy="506.8" r="7" fill="#d14d3f" opacity="0.72"/><circle cx="580.6" cy="538.8" r="7" fill="#d14d3f" opacity="0.72"/><circle cx="399.3" cy="393.8" r="7" fill="#d14d3f" opacity="0.72"/><circle cx="544.4" cy="225.3" r="7" fill="#d14d3f" opacity="0.72"/><circle cx="201.2" cy="533.7" r="7" fill="#d14d3f" opacity="0.72"/><circle cx="608.7" cy="524.2" r="7" fill="#d14d3f" opacity="0.72"/><circle cx="160.4" cy="553.7" r="7" fill="#d14d3f" opacity="0.72"/><circle cx="139.8" cy="388.3" r="7" fill="#d14d3f" opacity="0.72"/><circle cx="239.6" cy="165.8" r="7" fill="#d14d3f" opacity="0.72"/><circle cx="581.0" cy="522.5" r="7" fill="#d14d3f" opacity="0.72"/><circle cx="221.0" cy="518.1" r="7" fill="#d14d3f" opacity="0.72"/><circle cx="431.4" cy="523.6" r="7" fill="#d14d3f" opacity="0.72"/><circle cx="479.8" cy="305.6" r="7" fill="#d14d3f" opacity="0.72"/><circle cx="358.3" cy="495.4" r="7" fill="#d14d3f" opacity="0.72"/><circle cx="188.0" cy="139.9" r="7" fill="#d14d3f" opacity="0.72"/><circle cx="270.3" cy="147.2" r="7" fill="#d14d3f" opacity="0.72"/><circle cx="234.7" cy="528.0" r="7" fill="#d14d3f" opacity="0.72"/><circle cx="239.9" cy="108.6" r="7" fill="#d14d3f" opacity="0.72"/><circle cx="426.2" cy="536.6" r="7" fill="#d14d3f" opacity="0.72"/><circle cx="249.8" cy="632.5" r="7" fill="#d14d3f" opacity="0.72"/><circle cx="132.2" cy="415.8" r="7" fill="#d14d3f" opacity="0.72"/><circle cx="494.2" cy="236.1" r="7" fill="#d14d3f" opacity="0.72"/><circle cx="217.3" cy="589.8" r="7" fill="#d14d3f" opacity="0.72"/><circle cx="627.7" cy="374.2" r="7" fill="#d14d3f" opacity="0.72"/><circle cx="154.2" cy="140.0" r="7" fill="#d14d3f" opacity="0.72"/><circle cx="581.3" cy="242.1" r="7" fill="#d14d3f" opacity="0.72"/><circle cx="150.4" cy="306.5" r="7" fill="#d14d3f" opacity="0.72"/><circle cx="569.1" cy="176.1" r="7" fill="#d14d3f" opacity="0.72"/><circle cx="376.4" cy="288.7" r="7" fill="#d14d3f" opacity="0.72"/><circle cx="461.1" cy="571.8" r="7" fill="#d14d3f" opacity="0.72"/><circle cx="413.0" cy="555.0" r="7" fill="#d14d3f" opacity="0.72"/><circle cx="410.7" cy="305.0" r="7" fill="#d14d3f" opacity="0.72"/><circle cx="489.0" cy="429.2" r="7" fill="#d14d3f" opacity="0.72"/><circle cx="330.7" cy="389.1" r="7" fill="#d14d3f" opacity="0.72"/><circle cx="565.7" cy="517.7" r="7" fill="#d14d3f" opacity="0.72"/><circle cx="148.4" cy="376.0" r="7" fill="#d14d3f" opacity="0.72"/><circle cx="195.2" cy="176.2" r="7" fill="#d14d3f" opacity="0.72"/><circle cx="526.7" cy="349.8" r="7" fill="#d14d3f" opacity="0.72"/><circle cx="344.1" cy="432.7" r="7" fill="#d14d3f" opacity="0.72"/><circle cx="143.7" cy="104.9" r="7" fill="#d14d3f" opacity="0.72"/><circle cx="575.8" cy="171.1" r="7" fill="#d14d3f" opacity="0.72"/><circle cx="600.3" cy="528.9" r="7" fill="#d14d3f" opacity="0.72"/><circle cx="279.3" cy="184.8" r="7" fill="#d14d3f" opacity="0.72"/><circle cx="552.8" cy="503.5" r="7" fill="#d14d3f" opacity="0.72"/><circle cx="256.7" cy="195.7" r="7" fill="#d14d3f" opacity="0.72"/><circle cx="460.4" cy="494.0" r="7" fill="#d14d3f" opacity="0.72"/><circle cx="191.3" cy="319.2" r="7" fill="#d14d3f" opacity="0.72"/><circle cx="109.8" cy="414.2" r="7" fill="#d14d3f" opacity="0.72"/><circle cx="417.0" cy="565.8" r="7" fill="#d14d3f" opacity="0.72"/><circle cx="519.9" cy="576.9" r="7" fill="#d14d3f" opacity="0.72"/><circle cx="336.2" cy="420.5" r="7" fill="#d14d3f" opacity="0.72"/><circle cx="140.1" cy="155.4" r="7" fill="#d14d3f" opacity="0.72"/><circle cx="380.6" cy="450.8" r="7" fill="#d14d3f" opacity="0.72"/><circle cx="546.9" cy="244.8" r="7" fill="#d14d3f" opacity="0.72"/><circle cx="521.1" cy="606.1" r="7" fill="#d14d3f" opacity="0.72"/><circle cx="131.2" cy="111.0" r="7" fill="#d14d3f" opacity="0.72"/><circle cx="180.0" cy="366.5" r="7" fill="#d14d3f" opacity="0.72"/><circle cx="488.4" cy="295.2" r="7" fill="#d14d3f" opacity="0.72"/><circle cx="573.5" cy="510.4" r="7" fill="#d14d3f" opacity="0.72"/><circle cx="448.6" cy="288.9" r="7" fill="#d14d3f" opacity="0.72"/><circle cx="586.5" cy="442.7" r="7" fill="#d14d3f" opacity="0.72"/><circle cx="422.6" cy="172.6" r="7" fill="#d14d3f" opacity="0.72"/><circle cx="152.3" cy="471.1" r="7" fill="#d14d3f" opacity="0.72"/><circle cx="398.1" cy="417.6" r="7" fill="#d14d3f" opacity="0.72"/><circle cx="135.6" cy="548.5" r="7" fill="#d14d3f" opacity="0.72"/><circle cx="444.5" cy="588.3" r="7" fill="#d14d3f" opacity="0.72"/><circle cx="260.0" cy="593.6" r="7" fill="#d14d3f" opacity="0.72"/><circle cx="370.6" cy="464.9" r="7" fill="#d14d3f" opacity="0.72"/><circle cx="205.5" cy="534.3" r="7" fill="#d14d3f" opacity="0.72"/><circle cx="382.7" cy="279.3" r="7" fill="#d14d3f" opacity="0.72"/><circle cx="312.5" cy="391.3" r="7" fill="#d14d3f" opacity="0.72"/><circle cx="501.5" cy="126.4" r="7" fill="#d14d3f" opacity="0.72"/><circle cx="342.0" cy="363.6" r="7" fill="#d14d3f" opacity="0.72"/></g>
<g><polyline points="652.2,624.3 624.3,652.2 596.5,680.0 568.7,680.0 540.9,680.0 513.0,680.0 485.2,652.2 457.4,652.2 429.6,652.2 401.7,652.2 373.9,624.3 346.1,596.5" fill="none" stroke="#138a72" stroke-width="2" opacity="0.8"/><polyline points="67.8,596.5 67.8,568.7 67.8,540.9 67.8,513.0 67.8,485.2 67.8,457.4 67.8,429.6 67.8,401.7 67.8,373.9 67.8,346.1 67.8,318.3 67.8,290.4 67.8,262.6 67.8,234.8" fill="none" stroke="#138a72" stroke-width="2" opacity="0.8"/><polyline points="540.9,123.5 540.9,95.7 513.0,67.8 485.2,67.8 457.4,67.8 429.6,67.8 401.7,40.0 373.9,40.0 346.1,40.0 318.3,40.0 290.4,67.8 262.6,67.8" fill="none" stroke="#138a72" stroke-width="2" opacity="0.8"/><polyline points="67.8,67.8 95.7,67.8 123.5,67.8 151.3,67.8 179.1,67.8 207.0,67.8 234.8,40.0" fill="none" stroke="#138a72" stroke-width="2" opacity="0.8"/><polyline points="652.2,95.7 624.3,95.7 596.5,95.7 568.7,95.7 540.9,95.7 513.0,67.8 485.2,67.8 457.4,67.8 429.6,67.8 401.7,40.0 373.9,40.0 346.1,40.0 318.3,67.8 290.4,67.8 262.6,67.8 234.8,67.8 207.0,67.8 207.0,95.7 207.0,123.5 234.8,151.3" fill="none" stroke="#138a72" stroke-width="2" opacity="0.8"/><polyline points="652.2,207.0 624.3,179.1 596.5,151.3 568.7,123.5 540.9,95.7 513.0,67.8 485.2,67.8 457.4,67.8 429.6,67.8 401.7,40.0 373.9,40.0 346.1,40.0 318.3,40.0 290.4,67.8 262.6,67.8 234.8,67.8 207.0,67.8 179.1,95.7 151.3,123.5" fill="none" stroke="#138a72" stroke-width="2" opacity="0.8"/><polyline points="318.3,234.8 290.4,234.8 262.6,262.6 234.8,290.4 262.6,318.3 262.6,346.1 262.6,373.9 262.6,401.7 290.4,429.6 318.3,457.4 318.3,485.2" fill="none" stroke="#138a72" stroke-width="2" opacity="0.8"/><polyline points="179.1,596.5 179.1,624.3 207.0,652.2 234.8,680.0 262.6,680.0 290.4,652.2 318.3,652.2 346.1,652.2 373.9,652.2 401.7,652.2 429.6,624.3 429.6,596.5" fill="none" stroke="#138a72" stroke-width="2" opacity="0.8"/></g>
<g><circle cx="648.0" cy="612.4" r="6" fill="#225ea8"/><rect x="325.3" y="492.1" width="10" height="10" fill="#111827"/><circle cx="72.0" cy="584.0" r="6" fill="#225ea8"/><rect x="412.6" y="579.0" width="10" height="10" fill="#111827"/><circle cx="548.0" cy="117.9" r="6" fill="#225ea8"/><rect x="222.0" y="159.7" width="10" height="10" fill="#111827"/><circle cx="72.0" cy="72.0" r="6" fill="#225ea8"/><rect x="67.0" y="227.0" width="10" height="10" fill="#111827"/><circle cx="648.0" cy="84.8" r="6" fill="#225ea8"/><rect x="259.0" y="73.4" width="10" height="10" fill="#111827"/><circle cx="648.0" cy="200.5" r="6" fill="#225ea8"/><rect x="151.9" y="131.1" width="10" height="10" fill="#111827"/><circle cx="330.9" cy="231.3" r="6" fill="#225ea8"/><rect x="327.5" y="596.3" width="10" height="10" fill="#111827"/><circle cx="168.0" cy="596.8" r="6" fill="#225ea8"/><rect x="239.8" y="47.8" width="10" height="10" fill="#111827"/></g>
<text x="52" y="702" font-family="Arial" font-size="13" fill="#172026">blue = UAV start, black = assigned task, gray = static obstacles, red = live dynamic obstacles, green = adaptive paths</text>
</svg>