<svg xmlns="http://www.w3.org/2000/svg" width="720" height="720" viewBox="0 0 720 720">
<rect width="100%" height="100%" fill="#f8faf8"/>
<text x="360.0" y="30" text-anchor="middle" font-family="Arial" font-size="22" fill="#172026">Adaptive Feedback Graph, Scenario 1 (dynamic)</text>
<rect x="40" y="40" width="640" height="640" fill="#ffffff" stroke="#172026"/>
<g><circle cx="449.0" cy="667.2" r="2.4" fill="#6f7782" opacity="0.42"/><circle cx="654.0" cy="196.0" r="2.4" fill="#6f7782" opacity="0.42"/><circle cx="644.2" cy="52.8" r="2.4" fill="#6f7782" opacity="0.42"/><circle cx="59.4" cy="132.5" r="2.4" fill="#6f7782" opacity="0.42"/><circle cx="667.2" cy="150.5" r="2.4" fill="#6f7782" opacity="0.42"/><circle cx="160.9" cy="229.9" r="2.4" fill="#6f7782" opacity="0.42"/><circle cx="369.8" cy="509.3" r="2.4" fill="#6f7782" opacity="0.42"/><circle cx="533.2" cy="52.8" r="2.4" fill="#6f7782" opacity="0.42"/><circle cx="634.8" cy="83.7" r="2.4" fill="#6f7782" opacity="0.42"/><circle cx="255.8" cy="89.4" r="2.4" fill="#6f7782" opacity="0.42"/><circle cx="524.6" cy="444.9" r="2.4" fill="#6f7782" opacity="0.42"/><circle cx="288.4" cy="251.4" r="2.4" fill="#6f7782" opacity="0.42"/><circle cx="254.8" cy="667.2" r="2.4" fill="#6f7782" opacity="0.42"/><circle cx="513.0" cy="52.8" r="2.4" fill="#6f7782" opacity="0.42"/><circle cx="536.8" cy="52.8" r="2.4" fill="#6f7782" opacity="0.42"/><circle cx="185.2" cy="52.8" r="2.4" fill="#6f7782" opacity="0.42"/><circle cx="393.1" cy="137.0" r="2.4" fill="#6f7782" opacity="0.42"/><circle cx="321.1" cy="296.2" r="2.4" fill="#6f7782" opacity="0.42"/><circle cx="400.2" cy="598.1" r="2.4" fill="#6f7782" opacity="0.42"/><circle cx="608.2" cy="161.6" r="2.4" fill="#6f7782" opacity="0.42"/><circle cx="503.1" cy="276.3" r="2.4" fill="#6f7782" opacity="0.42"/><circle cx="286.5" cy="111.5" r="2.4" fill="#6f7782" opacity="0.42"/><circle cx="631.6" cy="421.5" r="2.4" fill="#6f7782" opacity="0.42"/><circle cx="211.4" cy="310.2" r="2.4" fill="#6f7782" opacity="0.42"/><circle cx="437.9" cy="648.9" r="2.4" fill="#6f7782" opacity="0.42"/><circle cx="577.3" cy="52.8" r="2.4" fill="#6f7782" opacity="0.42"/><circle cx="667.2" cy="168.3" r="2.4" fill="#6f7782" opacity="0.42"/><circle cx="99.1" cy="280.6" r="2.4" fill="#6f7782" opacity="0.42"/><circle cx="493.1" cy="504.2" r="2.4" fill="#6f7782" opacity="0.42"/><circle cx="87.0" cy="52.8" r="2.4" fill="#6f7782" opacity="0.42"/><circle cx="232.2" cy="455.7" r="2.4" fill="#6f7782" opacity="0.42"/><circle cx="526.6" cy="160.3" r="2.4" fill="#6f7782" opacity="0.42"/><circle cx="530.2" cy="227.0" r="2.4" fill="#6f7782" opacity="0.42"/><circle cx="387.6" cy="123.2" r="2.4" fill="#6f7782" opacity="0.42"/><circle cx="667.2" cy="129.9" r="2.4" fill="#6f7782" opacity="0.42"/><circle cx="196.8" cy="52.8" r="2.4" fill="#6f7782" opacity="0.42"/><circle cx="246.7" cy="630.7" r="2.4" fill="#6f7782" opacity="0.42"/><circle cx="378.9" cy="238.9" r="2.4" fill="#6f7782" opacity="0.42"/><circle cx="667.2" cy="52.8" r="2.4" fill="#6f7782" opacity="0.42"/><circle cx="232.0" cy="52.8" r="2.4" fill="#6f7782" opacity="0.42"/><circle cx="501.1" cy="134.6" r="2.4" fill="#6f7782" opacity="0.42"/><circle cx="285.6" cy="201.8" r="2.4" fill="#6f7782" opacity="0.42"/><circle cx="253.2" cy="654.1" r="2.4" fill="#6f7782" opacity="0.42"/><circle cx="486.2" cy="113.4" r="2.4" fill="#6f7782" opacity="0.42"/><circle cx="491.0" cy="98.7" r="2.4" fill="#6f7782" opacity="0.42"/><circle cx="289.9" cy="52.8" r="2.4" fill="#6f7782" opacity="0.42"/><circle cx="460.4" cy="495.4" r="2.4" fill="#6f7782" opacity="0.42"/><circle cx="254.3" cy="284.6" r="2.4" fill="#6f7782" opacity="0.42"/><circle cx="346.5" cy="538.0" r="2.4" fill="#6f7782" opacity="0.42"/><circle cx="641.6" cy="156.5" r="2.4" fill="#6f7782" opacity="0.42"/><circle cx="473.0" cy="125.4" r="2.4" fill="#6f7782" opacity="0.42"/><circle cx="78.5" cy="52.8" r="2.4" fill="#6f7782" opacity="0.42"/></g>
<g><circle cx="256.7" cy="510.6" r="7" fill="#d14d3f" opacity="0.72"/><circle cx="263.4" cy="488.7" r="7" fill="#d14d3f" opacity="0.72"/><circle cx="241.2" cy="474.5" r="7" fill="#d14d3f" opacity="0.72"/><circle cx="257.6" cy="460.5" r="7" fill="#d14d3f" opacity="0.72"/><circle cx="344.6" cy="439.1" r="7" fill="#d14d3f" opacity="0.72"/><circle cx="469.3" cy="628.6" r="7" fill="#d14d3f" opacity="0.72"/><circle cx="564.1" cy="578.5" r="7" fill="#d14d3f" opacity="0.72"/><circle cx="589.0" cy="514.1" r="7" fill="#d14d3f" opacity="0.72"/></g>
<g><polyline points="70.5,131.4 101.0,131.4 131.4,131.4 161.9,131.4 192.4,131.4 222.9,131.4 253.3,161.9 283.8,161.9 314.3,192.4 344.8,192.4 375.2,192.4 405.7,222.9" fill="none" stroke="#138a72" stroke-width="2" opacity="0.8"/><polyline points="131.4,131.4 161.9,131.4 192.4,131.4 222.9,131.4 253.3,131.4 283.8,161.9 314.3,161.9 344.8,161.9 375.2,161.9 405.7,161.9 436.2,161.9" fill="none" stroke="#138a72" stroke-width="2" opacity="0.8"/><polyline points="192.4,131.4 222.9,131.4 253.3,131.4 283.8,161.9 314.3,161.9 344.8,192.4 375.2,192.4 405.7,192.4 436.2,222.9" fill="none" stroke="#138a72" stroke-width="2" opacity="0.8"/><polyline points="253.3,131.4 283.8,161.9 314.3,161.9 344.8,161.9 375.2,161.9 405.7,161.9 436.2,161.9 466.7,161.9 497.1,161.9" fill="none" stroke="#138a72" stroke-width="2" opacity="0.8"/><polyline points="70.5,192.4 101.0,192.4 131.4,192.4 161.9,192.4 192.4,192.4 222.9,192.4 253.3,192.4 283.8,161.9 314.3,161.9 344.8,161.9 375.2,161.9 405.7,161.9 436.2,161.9 466.7,161.9 497.1,192.4 527.6,192.4" fill="none" stroke="#138a72" stroke-width="2" opacity="0.8"/><polyline points="131.4,192.4 161.9,192.4 192.4,192.4 222.9,192.4 253.3,192.4 283.8,161.9 314.3,161.9 344.8,161.9 375.2,161.9 405.7,161.9 436.2,161.9 466.7,161.9 497.1,192.4 527.6,192.4 558.1,222.9" fill="none" stroke="#138a72" stroke-width="2" opacity="0.8"/><polyline points="192.4,192.4 222.9,192.4 253.3,192.4 283.8,161.9 314.3,161.9 344.8,161.9 375.2,161.9 405.7,161.9 436.2,161.9 466.7,161.9 497.1,161.9 527.6,131.4 558.1,131.4 588.6,101.0" fill="none" stroke="#138a72" stroke-width="2" opacity="0.8"/><polyline points="253.3,192.4 283.8,161.9 314.3,161.9 344.8,161.9 375.2,161.9 405.7,161.9 436.2,161.9 466.7,161.9 497.1,161.9 527.6,131.4 558.1,131.4 588.6,101.0" fill="none" stroke="#138a72" stroke-width="2" opacity="0.8"/></g>
<g><circle cx="72.0" cy="129.6" r="6" fill="#225ea8"/><rect x="442.0" y="159.8" width="10" height="10" fill="#111827"/><circle cx="129.6" cy="129.6" r="6" fill="#225ea8"/><rect x="568.4" y="104.5" width="10" height="10" fill="#111827"/><circle cx="187.2" cy="129.6" r="6" fill="#225ea8"/><rect x="556.0" y="209.6" width="10" height="10" fill="#111827"/><circle cx="244.8" cy="129.6" r="6" fill="#225ea8"/><rect x="434.9" y="207.5" width="10" height="10" fill="#111827"/><circle cx="72.0" cy="193.6" r="6" fill="#225ea8"/><rect x="390.7" y="203.8" width="10" height="10" fill="#111827"/><circle cx="129.6" cy="193.6" r="6" fill="#225ea8"/><rect x="593.5" y="94.6" width="10" height="10" fill="#111827"/><circle cx="187.2" cy="193.6" r="6" fill="#225ea8"/><rect x="487.5" y="149.9" width="10" height="10" fill="#111827"/><circle cx="244.8" cy="193.6" r="6" fill="#225ea8"/><rect x="514.2" y="176.6" width="10" height="10" fill="#111827"/></g>
<text x="52" y="702" font-family="Arial" font-size="13" fill="#172026">blue = UAV start, black = assigned task, gray = static obstacles, red = live dynamic obstacles, green = adaptive paths</text>
</svg>